<?xml version="1.0" encoding="utf-8"?>
<!-- Generator: Adobe Illustrator 21.0.2, SVG Export Plug-In . SVG Version: 6.00 Build 0)  -->
<svg version="1.1" id="Layer_1" xmlns="http://www.w3.org/2000/svg" xmlns:xlink="http://www.w3.org/1999/xlink" x="0px" y="0px"
	 viewBox="0 0 1000 150.9" style="enable-background:new 0 0 1000 150.9;" xml:space="preserve">
<style type="text/css">
	.st0{fill:url(#SVGID_1_);}
	.st1{fill:url(#SVGID_2_);}
	.st2{fill:url(#SVGID_3_);}
	.st3{fill:url(#SVGID_4_);}
	.st4{opacity:0.3;clip-path:url(#SVGID_6_);}
	.st5{fill:#7DCBDB;}
	.st6{fill:url(#SVGID_7_);}
	.st7{opacity:0.3;clip-path:url(#SVGID_9_);}
	.st8{fill:#EC6669;}
	.st9{fill:#FBC96C;}
	.st10{fill:#EB5C5C;}
	.st11{opacity:0.2;fill:#1C1E38;}
	.st12{fill:#DB928E;}
	.st13{fill:#F7B7B1;}
	.st14{fill:#F5A074;}
	.st15{fill:#E94387;}
	.st16{fill:#1C77AB;}
	.st17{fill:#2E8CCC;}
	.st18{fill:#1C1E38;}
</style>
<linearGradient id="SVGID_1_" gradientUnits="userSpaceOnUse" x1="1037.9194" y1="404.8471" x2="2120.0806" y2="404.8471" gradientTransform="matrix(1 0 0 -1 -1079 480.3159)">
	<stop  offset="0" style="stop-color:#FAC739"/>
	<stop  offset="1" style="stop-color:#E7266D"/>
</linearGradient>
<path class="st0" d="M-31.9,123.5c-3.3-4.6,108.5-95.9,501.4-50.1C630.1,93.2,874.3,92,975,34.7c4.9-2.8,41.9-36.5,33.5-36.5h32.5
	v154H130.7C-100.9,157.3-30.9,124.9-31.9,123.5z"/>
<g>
	<linearGradient id="SVGID_2_" gradientUnits="userSpaceOnUse" x1="552.5611" y1="139.8692" x2="430.6829" y2="17.9911">
		<stop  offset="0" style="stop-color:#FAC739"/>
		<stop  offset="0.9973" style="stop-color:#EE8635"/>
	</linearGradient>
	<path class="st1" d="M564.5,32.4C564.5,32.4,564.5,32.4,564.5,32.4c-12.4-13.1-31.6-21.5-53.1-21.5c-26.8,0-49.9,13-60.8,31.8
		c0,0,0,0,0,0c-5.6-1.9-11.8-2.9-18.2-2.9c-25.4,0-46.5,15.8-49.8,36.3c-0.3,1.8-0.5,3.7-0.5,5.6c0,23.1,22.5,41.9,50.2,41.9h78.8
		c0.1,0,0.1,0,0.2,0c0.1,0,0.1,0,0.2,0h30.5c11.5,0,22.2-2.9,31.2-7.7c15.5-8.5,25.8-23.1,25.8-39.8
		C599.1,56.5,584.8,39.6,564.5,32.4z"/>
	<linearGradient id="SVGID_3_" gradientUnits="userSpaceOnUse" x1="682.0309" y1="110.2585" x2="599.7879" y2="28.0155">
		<stop  offset="0" style="stop-color:#FAC739"/>
		<stop  offset="0.9973" style="stop-color:#EE8635"/>
	</linearGradient>
	<path class="st2" d="M684.1,44.4C684.1,44.4,684.1,44.4,684.1,44.4c-3.8-3.3-8.4-6-13.6-7.6c-8-8.9-20.8-14.7-35.2-14.7
		c-16.9,0-31.5,7.9-38.9,19.5c0,0,0,0,0,0c-15.4,2.2-27,13.3-27,26.8c0,15,14.6,27.2,32.5,27.2h33.3c0,0,0.1,0,0.1,0
		c0,0,0.1,0,0.1,0h22.1c0,0,0.1,0,0.1,0c0,0,0.1,0,0.1,0h24.8c16.9,0,30.6-11.4,30.6-25.6c0-0.5,0-1.1-0.1-1.6
		C712.1,55.4,699.6,45.1,684.1,44.4z"/>
</g>
<g>
	
		<linearGradient id="SVGID_4_" gradientUnits="userSpaceOnUse" x1="486.036" y1="45.0215" x2="512.2775" y2="101.7097" gradientTransform="matrix(0.9581 -0.2865 0.2865 0.9581 68.2131 180.286)">
		<stop  offset="0" style="stop-color:#6EBA76"/>
		<stop  offset="1" style="stop-color:#2D2D76"/>
	</linearGradient>
	<path class="st3" d="M565.4,121.8c-17.6-9-32.5-48.7-12.2-45.9c18.8,2.7,1.7,39.2,25.4,41.9L565.4,121.8z"/>
	<g>
		<defs>
			<path id="SVGID_5_" d="M565.4,121.8c-17.6-9-32.5-48.7-12.2-45.9c18.8,2.7,1.7,39.2,25.4,41.9L565.4,121.8z"/>
		</defs>
		<clipPath id="SVGID_6_">
			<use xlink:href="#SVGID_5_"  style="overflow:visible;"/>
		</clipPath>
		<g class="st4">
			<path class="st5" d="M582.4,126.6c-0.2-0.1-19.9-10.9-26.9-27.2c-3.5-8.2-4.5-14.2-3.2-19.5c1.3-5.4,5-10.1,10.2-15.5l0.3,0.3
				c-11.1,11.6-13.8,18.6-6.9,34.5c7,16.2,26.5,26.9,26.7,27L582.4,126.6z"/>
			<path class="st5" d="M552.3,88.7c-8.3-1.7-10.4-6.2-10.4-6.4l0.4-0.2c0,0,2,4.4,10.1,6.1L552.3,88.7z"/>
			<path class="st5" d="M556.2,100.3l-0.2-0.4c4.7-1.7,8.1-7.8,8.2-7.8l0.4,0.2C564.4,92.5,561,98.5,556.2,100.3z"/>
			<path class="st5" d="M560.8,108.1c-14.5,0.1-16.8-6.7-16.9-7l0.5-0.1l-0.2,0.1l0.2-0.1c0,0.1,2.4,6.8,16.5,6.7L560.8,108.1z"/>
		</g>
	</g>
	
		<linearGradient id="SVGID_7_" gradientUnits="userSpaceOnUse" x1="686.8401" y1="127.4491" x2="703.3279" y2="163.067" gradientTransform="matrix(0.916 0.4011 -0.4011 0.916 -5.9849 -297.6439)">
		<stop  offset="0" style="stop-color:#6EBA76"/>
		<stop  offset="1" style="stop-color:#2D2D76"/>
	</linearGradient>
	<path class="st6" d="M565.7,120.2c-4.8-11.4,4.2-36.5,12.8-26.9c7.9,8.9-15.1,19.5-4.8,30.4L565.7,120.2z"/>
	<g>
		<defs>
			<path id="SVGID_8_" d="M565.7,120.2c-4.8-11.4,4.2-36.5,12.8-26.9c7.9,8.9-15.1,19.5-4.8,30.4L565.7,120.2z"/>
		</defs>
		<clipPath id="SVGID_9_">
			<use xlink:href="#SVGID_8_"  style="overflow:visible;"/>
		</clipPath>
		<g class="st7">
			<path class="st5" d="M571.9,129.4c-0.1-0.1-5.1-13.3-1.8-24c1.6-5.3,3.6-8.6,6.4-10.6c2.8-2,6.5-2.8,11.2-3.3l0,0.3
				c-10,1.1-14.1,3.3-17.3,13.7c-3.2,10.6,1.8,23.6,1.8,23.8L571.9,129.4z"/>
			<path class="st5" d="M572.9,99c-3.3-4.2-2.4-7.2-2.4-7.3l0.3,0.1c0,0-0.8,3,2.4,7L572.9,99z"/>
			<path class="st5" d="M570,106.1l0.1-0.3c3,1.1,7.1-0.4,7.1-0.4l0.1,0.3C577.1,105.8,573,107.3,570,106.1z"/>
			<path class="st5" d="M569,111.7c-7-5.9-5.3-10.1-5.2-10.2l0.3,0.1l-0.1-0.1l0.1,0.1c0,0-1.6,4.2,5.2,9.9L569,111.7z"/>
		</g>
	</g>
</g>
<g>
	<g>
		<path class="st8" d="M408.9,64c7.2,7.4,17.8,10.3,27.5,5c7.4-4.1,11.8-11.8,12.7-19.8c-6,3-13.2,6.1-20.9,8.9
			C421.4,60.5,414.8,62.6,408.9,64z"/>
		<path class="st8" d="M447.4,36.7c-0.1-0.3-0.3-0.7-0.4-1c-0.2-0.6-0.5-1.1-0.8-1.6c-6.6-11.8-21.9-15.4-34-8.7
			c-10.2,5.7-13.7,16.2-10.6,26.4c0.1,0.3,0.2,0.7,0.3,1c0.5,1.6,1.2,3.1,2.1,4.7c1.2,2.1,2.5,4,4.1,5.7c6-1.5,12.8-3.5,19.7-6
			c7.9-2.9,15.3-6,21.4-9.2C449.4,44.1,448.9,40.3,447.4,36.7z"/>
		<path class="st9" d="M464.6,36.3c-0.8-2.2-5.4-2.7-13.7-1.3c-1.3,0.2-2.5,0.5-3.9,0.7c0.2,0.3,0.3,0.6,0.4,1
			c1.3-0.3,2.5-0.5,3.6-0.7c1.5-0.3,2.9-0.4,4.2-0.6c2.8-0.3,4.8-0.2,6.2,0c1.4,0.2,2.1,0.7,2.3,1.2c0.4,1.2-1.8,4.1-9.3,8.5
			c-1.6,0.9-3.3,1.9-5.2,2.8c-6.1,3.1-13.5,6.3-21.4,9.2c-6.9,2.5-13.7,4.6-19.7,6c-3,0.7-5.8,1.3-8.4,1.8
			c-8.6,1.4-12.2,0.6-12.6-0.6c-0.7-2,4.8-6.4,14.8-11.5c-0.1-0.3-0.2-0.7-0.3-1c-9.8,4.9-16.6,9.9-15.5,12.9
			c0.6,1.8,3.8,2.4,9.4,1.9c1.3-0.1,2.8-0.3,4.4-0.6c2.8-0.5,5.8-1.1,9-1.9c5.9-1.5,12.5-3.5,19.2-5.9c7.7-2.8,14.9-5.9,20.9-8.9
			c2.1-1,4-2.1,5.8-3.1c6.8-4,10.1-7.1,9.9-9.3C464.7,36.6,464.7,36.4,464.6,36.3z"/>
	</g>
	<path class="st10" d="M410.7,36.6c-1.3,0.6-2.6-0.2-3.2-1.5c-0.5-1.3-0.1-2.6,1.2-3.2c1.3-0.6,2.8,0,3.4,1.2
		C412.6,34.4,412,36,410.7,36.6z"/>
	<path class="st10" d="M406.5,39c-0.7,0.3-1.4-0.1-1.7-0.8c-0.3-0.7-0.1-1.4,0.6-1.7c0.7-0.3,1.5,0,1.8,0.7
		C407.5,37.9,407.2,38.7,406.5,39z"/>
	<path class="st10" d="M437.7,66c-0.7,0.3-1.4-0.1-1.7-0.8c-0.3-0.7-0.1-1.4,0.6-1.7c0.7-0.3,1.5,0,1.8,0.7
		C438.7,64.8,438.4,65.7,437.7,66z"/>
</g>
<g>
	<ellipse class="st11" cx="611.2" cy="121.3" rx="22.3" ry="0.8"/>
	<path class="st12" d="M611.3,50.6c-0.2-0.5-1.2-4-0.7-4.2l3.3-0.9c0.3-0.1,1.3,1.2,1.4,1.5c0,0,0.3,0.9,0.3,0.9
		c0,0.1,0.3,1.8,0.6,2.4c0.1,0.2,0.3,0.4,0.5,0.6c0.4,0.3,0.8,0.5,1.1,0.6c0.1,0.1,0.1,0.2,0,0.3c-1.1,0.8-5.5,3.6-6.9,3.3
		C609.5,54.9,612.4,53.4,611.3,50.6z"/>
	<path class="st13" d="M607.7,44.8c0,3.7,0.2,8.1,2.5,7.1c2.3-1,6.4-2.4,6.4-6.1c0-3.7-0.5-6.7-4.5-6.7
		C609.7,39.2,607.7,41.1,607.7,44.8z"/>
	<g>
		<path class="st14" d="M598.7,118l2.2,0.7c0.1,0,0.2,0,0.3-0.1l0.6-1.7c0-0.1,0-0.2-0.1-0.3l-2.2-0.7c-0.1,0-0.2,0-0.3,0.1
			l-0.6,1.7C598.5,117.9,598.6,118,598.7,118z"/>
		<path class="st15" d="M601.5,118.4c0,0-0.5,2.5-0.9,2.7c-0.4,0.2-2.2-0.4-3.1-1c-0.9-0.6-1.8-0.4-3.7-1c-1-0.3-1.8-0.8-1.8-0.8
			s-0.2-1.2,1.6-0.9s4,0.2,4.5-0.1C598.6,117,599.4,118.1,601.5,118.4z"/>
	</g>
	<g>
		<path class="st14" d="M627.2,116.5l1.9-1.2c0.1-0.1,0.1-0.2,0.1-0.3l-1-1.5c-0.1-0.1-0.2-0.1-0.3-0.1l-1.9,1.2
			c-0.1,0.1-0.1,0.2-0.1,0.3l1,1.5C626.9,116.5,627.1,116.6,627.2,116.5z"/>
		<path class="st15" d="M629.2,114.5c0,0,1.6,2,1.5,2.4c-0.1,0.4-1.7,1.4-2.7,1.8c-1.1,0.3-1.6,2.4-3.5,2.5c-2.5,0.2-2.3,0-2.3,0
			s-0.5-0.7,1.7-1.6c1.7-0.7,2.3-2.6,2.4-3.2C626.4,115.9,627.7,116,629.2,114.5z"/>
	</g>
	<path class="st16" d="M620.5,78.7c0.1,4.3,1.5,14.5,1.3,15.9c-0.1,1.4-6.4,5.1-7,2.6c-0.7-2.6-4.6-17-6.4-22.4
		c-1.8-5.5,9.2-4.6,9.2-4.6S620.2,69.9,620.5,78.7z"/>
	<path class="st16" d="M624.8,102.2c1.5,3.8,3.9,8.6,4.3,9.8c0.3,1.2-3.3,4.6-4.7,2.4c-1.4-2.2-8.1-12.1-9.8-17.5
		c-1.3-4.2,6.4-4.8,6.4-4.8S621.8,94.5,624.8,102.2z"/>
	<path class="st17" d="M617.2,81.2c-2,3.8-6,13.3-6.8,14.5c-0.8,1.1-8.1,1.3-7.4-1.3c0.7-2.6,4.5-17,5.7-22.6
		c1.2-5.6,10.3,0.6,10.3,0.6S621.4,73.4,617.2,81.2z"/>
	<path class="st14" d="M606.7,66.1c-3.8,0.1-9.7-0.7-10.8-1.3c-1.1-0.6-0.9-2.8,0.4-2.8c1.3,0.1,7.7-0.4,9.7,0.2"/>
	<path class="st17" d="M607.7,104.8c-1.2,3.9-3.5,10.1-4,11.3s-5.5,1.6-5.1-1c0.3-2.6,2.4-15.4,4.5-20.7c1.6-4.1,7.9,0.3,7.9,0.3
		S610.2,96.9,607.7,104.8z"/>
	<path class="st14" d="M619.7,60.4c1.6,3.4,2.1,6.5,2.7,7.3c1.8,2.5,2.1,1.3,3.2,0.2c0.4-0.4,0.7-1,0.5-1.6
		c-0.9-3-2.7-10.5-4.5-12.5c-2-2.2-3.1-2.4-4.9-2.9c0,0-3,2.2-5.2,1.3c0,0-1.3,0.5-1.8,1.8c-1.8,4.7-1.8,6.8-1.7,9.6
		c0.1,3.4,0.6,6.4,0.4,7.7c-0.4,2-0.5,2.7,0.4,2.8c0.8,0.1,10.7,0.4,10.8-0.4c0-0.1,0.4-0.3,0.4-0.6c0-1.9-1.3-6.5-0.5-10.2
		c0.1-0.6,0.2-1.3,0.2-2L619.7,60.4z"/>
	<path class="st18" d="M610.8,42.3c0,0-3,1.1-3.6,0.6c-0.3-0.3-0.6-0.7-0.8-1c0-0.1,0-0.2,0.1-0.1c0.1,0.1,0.2,0.1,0.3,0.1
		c0.3,0.1,1-1.1,2.1-1.7c0.1,0,0.1-0.1,0-0.2c-0.2-0.1-0.4-0.2-0.5-0.3c-0.2-0.2,1.6,0,2.6-0.5c1.1-0.6,4.9-0.5,5.3,0.6"/>
	<path class="st18" d="M612.5,46.8c0,0-2.9-2.7-2.4-4.1c0.5-1.3,3.2-3.2,5.7-3s2.5,3.3,1.8,5.2c-0.7,1.8-1.5,3.2-1.5,3.2
		S614,46.6,612.5,46.8z"/>
	
		<ellipse transform="matrix(0.2346 -0.9721 0.9721 0.2346 424.1518 631.105)" class="st13" cx="612.8" cy="46.2" rx="1.4" ry="1.1"/>
	
		<rect x="606.1" y="42.1" transform="matrix(0.4389 -0.8985 0.8985 0.4389 283.1308 585.5851)" class="st15" width="8.7" height="48"/>
	<path class="st13" d="M594.7,64.1c1,0.4,2.5,1.2,2.8,0.4c0.3-0.8-0.5-1.4-1.4-1.9c-1-0.4-2.3-0.5-2.7,0.2
		C593.1,63.6,593.8,63.7,594.7,64.1z"/>
	<path class="st13" d="M617.9,71.4c0.2,0.4,0.7,0.8,0.7,0.8s-1.6,1.2-2.4,1.5c-0.8,0.3-1.1,0.4-2.1,0.5c-1,0.1-2,0-2.4-1.3
		c-0.3-1.1,1.1-1.8,1.8-1.7c0.8,0,2.1,0.5,2.7,0.2c0.6-0.2,1.4-0.7,1.4-0.7S617.7,71,617.9,71.4z"/>
	<path class="st14" d="M623.9,64.3c-3,2.4-6.6,5.5-7,6.6c-0.4,1.2,1.5,3.5,2.4,2.6c0.9-0.9,5.4-4.1,6.5-5.8"/>
</g>
</svg>
