<?xml version="1.0" encoding="utf-8"?>
<!-- Generator: Adobe Illustrator 21.0.2, SVG Export Plug-In . SVG Version: 6.00 Build 0)  -->
<svg version="1.1" id="Layer_1" xmlns="http://www.w3.org/2000/svg" xmlns:xlink="http://www.w3.org/1999/xlink" x="0px" y="0px"
	 viewBox="0 0 1350 578" style="enable-background:new 0 0 1350 578;" xml:space="preserve">
<style type="text/css">
	.st0{fill:#FFDE00;}
	.st1{clip-path:url(#SVGID_2_);}
	.st2{fill:url(#SVGID_3_);}
	.st3{fill:url(#SVGID_4_);}
	.st4{fill:url(#SVGID_5_);}
	.st5{fill:url(#SVGID_6_);}
	.st6{fill:url(#SVGID_7_);}
	.st7{fill:url(#SVGID_8_);}
	.st8{fill:url(#SVGID_9_);}
	.st9{fill:url(#SVGID_10_);}
	.st10{fill:url(#SVGID_11_);}
	.st11{opacity:0.61;fill:url(#SVGID_12_);enable-background:new    ;}
</style>
<path class="st0" d="M666.4,295.9l33.1-238l-29-0.7c-0.4,0-5,16.3-5.3,17.3c-4.9,14.1-11,27.8-18.4,40.7c-17,29.6-41.2,55.4-75.2,55
	c-19.7-0.2-38.8-7.5-56.9-16c-18.1-8.5-35.9-18.1-55-23.5c-19.1-5.3-40.1-6.1-57.9,3.2c-17.1,8.9-29.6,26.1-37.5,44.8
	c-8.2,19.5-12.4,41.1-15.7,62.1c30.5,4.1,61.1,10.6,91.5,15.8c53.5,9.2,107,18.5,160.5,27.7C604.2,285.2,666.4,295.9,666.4,295.9z"
	/>
<g>
	<g>
		<defs>
			<polyline id="SVGID_1_" points="1350,-500 1350,412 0,412 0,-500 			"/>
		</defs>
		<clipPath id="SVGID_2_">
			<use xlink:href="#SVGID_1_"  style="overflow:visible;"/>
		</clipPath>
		<g class="st1">
			
				<linearGradient id="SVGID_3_" gradientUnits="userSpaceOnUse" x1="-926.9971" y1="1663.9625" x2="-185.3225" y2="1663.9625" gradientTransform="matrix(0.2601 0.9656 0.9656 -0.2601 -1485.7762 948.9843)">
				<stop  offset="0" style="stop-color:#FAC738"/>
				<stop  offset="1" style="stop-color:#E7226C"/>
			</linearGradient>
			<path class="st2" d="M-158-368.7c27.1-1,38.5,3.3,55.7,14.7c127.8,85.1-27,589.7,410.9,598.6c18.5,16,6.8,25.6,6.8,25.6
				l-491.7,134.2C-176.3,404.3-162.9-368.5-158-368.7z"/>
			
				<linearGradient id="SVGID_4_" gradientUnits="userSpaceOnUse" x1="1578.4" y1="1567.2651" x2="2512.6001" y2="1567.2651" gradientTransform="matrix(1 0 0 -1 -1079 1676.4869)">
				<stop  offset="0" style="stop-color:#FAC738"/>
				<stop  offset="1" style="stop-color:#E7226C"/>
			</linearGradient>
			<path class="st3" d="M501.6,146.5c7.8-25.5,35.9-46.4,55.5-59.7c95.4-64.7,194.1-20.2,290.1,16.6
				c164.8,63.2,415.4,59.5,518.7-123.7c5.1-8.9,42.9-116.8,34.4-116.8h33.3v492.5H499.4c0-41,0-82,0-123c0-23.9,0.3-47.9,0-71.8
				C499.5,155.8,500.2,151.1,501.6,146.5z"/>
			
				<linearGradient id="SVGID_5_" gradientUnits="userSpaceOnUse" x1="1047.9901" y1="1455.0535" x2="2480.3" y2="1455.0535" gradientTransform="matrix(1 0 0 -1 -1079 1676.4869)">
				<stop  offset="0" style="stop-color:#FAC738"/>
				<stop  offset="1" style="stop-color:#E7226C"/>
			</linearGradient>
			<path class="st4" d="M-18.9,375c-4.4-14.6,143.6-306.4,663.7-160.2c212.5,63.3,535.7,59.5,669.1-123.6
				c6.5-8.9,55.4-116.8,44.4-116.8h43v492.4h-1205C-110.2,483.2-17.5,379.6-18.9,375z"/>
			
				<linearGradient id="SVGID_6_" gradientUnits="userSpaceOnUse" x1="1472" y1="1606.755" x2="1472" y2="1493.6498" gradientTransform="matrix(1 0 0 -1 -1079 1676.4869)">
				<stop  offset="0" style="stop-color:#FAC738"/>
				<stop  offset="1" style="stop-color:#E7226C"/>
			</linearGradient>
			<ellipse class="st5" cx="393" cy="101.2" rx="47.7" ry="46.4"/>
			
				<linearGradient id="SVGID_7_" gradientUnits="userSpaceOnUse" x1="2121.2" y1="1598.3104" x2="2121.2" y2="1552.0725" gradientTransform="matrix(1 0 0 -1 -1079 1676.4869)">
				<stop  offset="0" style="stop-color:#FAC738"/>
				<stop  offset="1" style="stop-color:#E7226C"/>
			</linearGradient>
			<ellipse class="st6" cx="1042.2" cy="91.1" rx="19.5" ry="18.9"/>
			
				<linearGradient id="SVGID_8_" gradientUnits="userSpaceOnUse" x1="2129" y1="1491.2733" x2="2129" y2="1416.5809" gradientTransform="matrix(1 0 0 -1 -1079 1676.4869)">
				<stop  offset="0" style="stop-color:#FAC738"/>
				<stop  offset="1" style="stop-color:#E7226C"/>
			</linearGradient>
			<ellipse class="st7" cx="1050" cy="232.5" rx="31.5" ry="30.7"/>
			
				<linearGradient id="SVGID_9_" gradientUnits="userSpaceOnUse" x1="1315.7" y1="1600.4144" x2="1315.7" y2="1552.7538" gradientTransform="matrix(1 0 0 -1 -1079 1676.4869)">
				<stop  offset="0" style="stop-color:#FAC738"/>
				<stop  offset="1" style="stop-color:#E7226C"/>
			</linearGradient>
			<ellipse class="st8" cx="236.7" cy="106.2" rx="20.1" ry="19.6"/>
			
				<linearGradient id="SVGID_10_" gradientUnits="userSpaceOnUse" x1="1249.1" y1="1526.9222" x2="1249.1" y2="1452.2301" gradientTransform="matrix(1 0 0 -1 -1079 1676.4869)">
				<stop  offset="0" style="stop-color:#FAC738"/>
				<stop  offset="1" style="stop-color:#E7226C"/>
			</linearGradient>
			<ellipse class="st9" cx="170.1" cy="196.8" rx="31.5" ry="30.7"/>
			
				<linearGradient id="SVGID_11_" gradientUnits="userSpaceOnUse" x1="1682.9" y1="1510.7955" x2="1682.9" y2="1446.7737" gradientTransform="matrix(1 0 0 -1 -1079 1676.4869)">
				<stop  offset="0" style="stop-color:#FAC738"/>
				<stop  offset="1" style="stop-color:#E7226C"/>
			</linearGradient>
			<ellipse class="st10" cx="603.9" cy="211.4" rx="27" ry="26.3"/>
			
				<linearGradient id="SVGID_12_" gradientUnits="userSpaceOnUse" x1="1689" y1="1282.4916" x2="4772.5664" y2="1282.4916" gradientTransform="matrix(1 0 0 -1 -1079 1676.4869)">
				<stop  offset="0" style="stop-color:#FAC738"/>
				<stop  offset="1" style="stop-color:#E7226C"/>
			</linearGradient>
			<path class="st11" d="M1158.3,466.8l537.6-0.5c0,0-139.3-11.3-261.6-69.3c-117.2-55.8-246.1-94.2-375.8-66.5
				c-64.7,13.8-127.2,38.1-186.9,66.4c-122.3,58-261.6,69.3-261.6,69.3s537.6,0.5,537.6,0.7h5.4
				C1152.9,466.8,1158.3,466.8,1158.3,466.8z"/>
		</g>
	</g>
</g>
</svg>
